<?xml version="1.0" standalone="no"?><!DOCTYPE svg PUBLIC "-//W3C//DTD SVG 1.1//EN" "http://www.w3.org/Graphics/SVG/1.1/DTD/svg11.dtd"><svg t="1577360925636" class="icon" viewBox="0 0 1024 1024" version="1.1" xmlns="http://www.w3.org/2000/svg" p-id="2816" xmlns:xlink="http://www.w3.org/1999/xlink" width="128" height="128"><defs><style type="text/css"></style></defs><path d="M886.528 908.032c-28.096 28.096-73.856 28.096-102.016 0L138.304 261.824c-28.096-28.16-28.16-73.856 0-102.016 28.032-28.16 73.792-28.16 102.08 0l646.144 646.144c28.096 28.288 28.224 73.92 0 102.08z m-0.768-646.528L239.616 907.648c-28.224 28.224-73.92 28.224-102.08 0-28.16-28.096-28.16-73.728 0.064-102.016l646.144-646.08c28.224-28.16 73.984-28.16 102.016-0.064 28.224 28.16 28.096 73.856 0 102.016z" p-id="2817" fill="#ffffff"></path></svg>