<?xml version="1.0" standalone="no"?><!DOCTYPE svg PUBLIC "-//W3C//DTD SVG 1.1//EN" "http://www.w3.org/Graphics/SVG/1.1/DTD/svg11.dtd"><svg t="1577329181885" class="icon" viewBox="0 0 1025 1024" version="1.1" xmlns="http://www.w3.org/2000/svg" p-id="3516" xmlns:xlink="http://www.w3.org/1999/xlink" width="128.125" height="128"><defs><style type="text/css"></style></defs><path d="M842.3424 572.8256H0.2048V628.736c56.1152 14.336 97.8944 64.9216 97.8944 125.5424 0 60.6208-41.7792 111.4112-97.8944 125.5424v55.9104h842.3424c100.352 0 181.6576-81.3056 181.6576-181.6576-0.2048-99.9424-81.5104-181.248-181.8624-181.248z m0 0M1024.2048 145.8176V89.7024H181.6576C81.5104 89.7024 0 171.008 0 271.36c0 100.1472 81.3056 181.6576 181.6576 181.6576h842.3424v-55.9104c-56.1152-14.336-97.8944-65.1264-97.8944-125.5424 0.2048-60.8256 41.7792-111.616 98.0992-125.7472z m0 0" p-id="3517" fill="#71768c"></path></svg>