<?xml version="1.0" standalone="no"?><!DOCTYPE svg PUBLIC "-//W3C//DTD SVG 1.1//EN" "http://www.w3.org/Graphics/SVG/1.1/DTD/svg11.dtd"><svg t="1577346665443" class="icon" viewBox="0 0 1118 1024" version="1.1" xmlns="http://www.w3.org/2000/svg" p-id="24018" xmlns:xlink="http://www.w3.org/1999/xlink" width="139.75" height="128"><defs><style type="text/css"></style></defs><path d="M279.272727 349.463273c-38.539636 0-69.818182 34.629818-69.818182 77.265454 0 42.635636 31.278545 77.265455 69.818182 77.265455s69.818182-34.629818 69.818182-77.265455c0-42.821818-31.278545-77.265455-69.818182-77.265454z m279.458909 0c-38.539636 0-69.911273 34.629818-69.911272 77.265454 0 42.635636 31.185455 77.265455 69.818181 77.265455s69.818182-34.629818 69.818182-77.265455c0-42.821818-31.371636-77.265455-69.818182-77.265454z m279.272728 0c-38.539636 0-69.911273 34.629818-69.911273 77.265454 0 42.635636 31.371636 77.265455 69.818182 77.265455 38.632727 0 70.004364-34.629818 70.004363-77.265455-0.186182-42.821818-31.371636-77.265455-69.911272-77.265454zM977.640727 0H139.636364C62.557091 0 0 69.259636 0 154.717091v505.669818c0 85.271273 63.953455 164.026182 142.801455 164.026182H355.607273c36.957091 42.077091 190.557091 193.908364 190.557091 193.908364 6.702545 7.540364 17.873455 7.540364 24.576 0 0 0 112.546909-118.225455 185.716363-193.908364h217.832728c78.848 0 142.801455-78.754909 142.801454-164.026182V154.530909C1117.277091 69.259636 1054.72 0 977.640727 0z m69.725091 660.386909c0 42.635636-33.512727 87.412364-73.076363 87.412364h-214.109091c-25.972364 0-49.338182 28.392727-49.338182 28.392727L560.407273 924.858182 409.972364 776.192s-28.672-28.392727-53.061819-28.392727h-214.10909c-39.563636 0-73.076364-44.776727-73.076364-87.505455V154.530909c0-42.635636 31.185455-77.265455 69.911273-77.265454h838.004363c38.539636 0 69.725091 34.629818 69.725091 77.265454v505.856z" fill="#71768c" p-id="24019"></path></svg>