<?xml version="1.0" standalone="no"?><!DOCTYPE svg PUBLIC "-//W3C//DTD SVG 1.1//EN" "http://www.w3.org/Graphics/SVG/1.1/DTD/svg11.dtd"><svg t="1577356264164" class="icon" viewBox="0 0 1024 1024" version="1.1" xmlns="http://www.w3.org/2000/svg" p-id="25115" xmlns:xlink="http://www.w3.org/1999/xlink" width="128" height="128"><defs><style type="text/css"></style></defs><path d="M331.268 71.323l332.336 331.005v-338.554s-137.734-67.977-332.336 7.556z" fill="#DC514F" p-id="25116"></path><path d="M696.036 74.879l0.889 468.734 239.477-239.477s-49.318-145.286-240.364-229.259z" fill="#505BA0" p-id="25117"></path><path d="M951.507 335.682l-331.005 332.336h338.554c0-0.448 67.977-138.175-7.556-332.336z" fill="#4D72B0" p-id="25118"></path><path d="M947.953 700.006l-468.734 0.889 239.477 239.477c-0.448 0 144.842-49.318 229.259-240.364z" fill="#2C9BCE" p-id="25119"></path><path d="M687.146 955.475l-331.891-331.005v338.554s137.734 67.977 331.891-7.556z" fill="#6BB138" p-id="25120"></path><path d="M322.384 951.922l-0.889-468.734-239.477 239.477c0.448 0 49.764 145.286 240.364 229.259z" fill="#8FBE36" p-id="25121"></path><path d="M67.354 691.12l331.005-331.891h-338.999s-67.536 137.734 7.997 331.891z" fill="#E9BB2D" p-id="25122"></path><path d="M70.91 326.793l468.734-0.889-239.477-239.477s-145.286 49.318-229.259 240.364z" fill="#E37126" p-id="25123"></path></svg>