<?xml version="1.0" standalone="no"?><!DOCTYPE svg PUBLIC "-//W3C//DTD SVG 1.1//EN" "http://www.w3.org/Graphics/SVG/1.1/DTD/svg11.dtd"><svg t="1577356333517" class="icon" viewBox="0 0 1024 1024" version="1.1" xmlns="http://www.w3.org/2000/svg" p-id="27379" xmlns:xlink="http://www.w3.org/1999/xlink" width="128" height="128"><defs><style type="text/css"></style></defs><path d="M818.776892 427.095477c7.718593-30.874372 12.864322-61.748744 12.864322-92.623115 0-185.246231-144.080402-334.472362-319.035176-334.472362-177.527638 0-319.035176 149.226131-319.035176 334.472362 0 33.447236 5.145729 64.321608 12.864322 92.623115-41.165829 33.447236-198.110553 180.100503-133.788945 370.492463 0 0 54.030151-5.145729 100.341709-92.623116 12.864322 56.603015 38.592965 105.487437 74.613065 146.653266-51.457286 15.437186-84.904523 46.311558-84.904523 79.758794 0 51.457286 72.040201 92.623116 162.090453 92.623116 61.748744 0 113.20603-18.01005 141.507537-46.311558 15.437186 2.572864 30.874372 2.572864 46.311558 2.572865s30.874372-2.572864 46.311558-2.572865c28.301508 28.301508 82.331658 46.311558 141.507538 46.311558 90.050251 0 162.090452-41.165829 162.090452-92.623116 0-33.447236-33.447236-64.321608-84.904523-79.758794 33.447236-41.165829 59.175879-92.623116 74.613066-146.653266 43.738693 87.477387 100.341709 92.623116 100.341708 92.623116 61.748744-190.39196-95.19598-337.045226-133.788945-370.492463z" fill="#0092FF" p-id="27380"></path></svg>