<?xml version="1.0" standalone="no"?><!DOCTYPE svg PUBLIC "-//W3C//DTD SVG 1.1//EN" "http://www.w3.org/Graphics/SVG/1.1/DTD/svg11.dtd"><svg t="1577356287661" class="icon" viewBox="0 0 1024 1024" version="1.1" xmlns="http://www.w3.org/2000/svg" p-id="25856" xmlns:xlink="http://www.w3.org/1999/xlink" width="128" height="128"><defs><style type="text/css"></style></defs><path d="M512 0c282.7776 0 512 229.2224 512 512s-229.2224 512-512 512S0 794.7776 0 512 229.2224 0 512 0z m-122.1376 604.16c13.5168-15.0016 186.88-112.64 186.88-112.64L350.3616 460.8l302.7968-3.3024a14.6176 14.6176 0 0 1 0 21.5808c-10.5984 12.4416-171.52 122.5216-171.52 122.5216l182.8608 14.6176-6.2208-31.0784 146.304-142.6176-202.9824-29.6192L512 238.4384l-90.7008 173.3632-201.8816 29.2608 146.304 144.0768-36.5824 200.4224L512 690.0992l182.8608 95.4624-30.0032-163.84-274.9952 12.0576a19.0208 19.0208 0 0 1 0-27.8016V604.16z" fill="#FAB619" p-id="25857"></path></svg>