<?xml version="1.0" standalone="no"?><!DOCTYPE svg PUBLIC "-//W3C//DTD SVG 1.1//EN" "http://www.w3.org/Graphics/SVG/1.1/DTD/svg11.dtd"><svg t="1577257426865" class="icon" viewBox="0 0 1024 1024" version="1.1" xmlns="http://www.w3.org/2000/svg" p-id="4731" xmlns:xlink="http://www.w3.org/1999/xlink" width="128" height="128"><defs><style type="text/css"></style></defs><path d="M1011.369332 960.985828 838.196247 775.139096c70.193689-84.783988 108.795868-190.480262 108.795868-301.721833 0-261.016759-211.775264-473.417263-472.103338-473.417263-260.252349 0-472.030683 212.362642-472.030683 473.417263 0 261.041318 211.778334 473.40089 472.064452 473.40089 68.193125-0.038886 133.954875-14.310937 195.437158-42.384319 18.262946-8.343015 26.319435-29.950126 18.010189-48.223305-8.311293-18.352997-29.960359-26.472931-48.080042-18.063401-52.039213 23.743774-107.667162 35.799344-165.402097 35.840276C254.653841 873.986381 75.483158 694.290743 75.483158 473.417263c0-220.8612 179.164542-400.583444 399.405619-400.583444 220.274846 0 399.476227 179.695638 399.476227 400.583444 0 103.975073-39.546691 202.480574-111.302969 277.386588-13.901615 14.496156-13.429871 37.544081 0.980327 51.501978 1.089821 1.063215 2.509147 1.458211 3.745301 2.362814 0.985444 1.455141 1.489934 3.134387 2.720971 4.446265l187.807387 201.551412c7.123234 7.673773 16.812921 11.543917 26.508747 11.543917 8.893554 0 17.793248-3.241834 24.802896-9.852392C1024.260943 998.714104 1025.059122 975.666178 1011.369332 960.985828L1011.369332 960.985828 1011.369332 960.985828zM1011.369332 960.985828" p-id="4732" fill="#999faf"></path></svg>