<?xml version="1.0" standalone="no"?><!DOCTYPE svg PUBLIC "-//W3C//DTD SVG 1.1//EN" "http://www.w3.org/Graphics/SVG/1.1/DTD/svg11.dtd"><svg t="1577327926470" class="icon" viewBox="0 0 1024 1024" version="1.1" xmlns="http://www.w3.org/2000/svg" p-id="1710" xmlns:xlink="http://www.w3.org/1999/xlink" width="128" height="128"><defs><style type="text/css"></style></defs><path d="M368.635 278.742L493.203 18.547c11.879-24.78 30.72-24.678 42.394 0L656.99 280.38a102.399 102.399 0 0 0 68.351 52.685l274.634 43.673c26.163 4.147 31.897 23.09 12.85 42.342L812.637 620.907a109.976 109.976 0 0 0-26.675 84.326l45.21 287.228c4.351 27.392-11.11 38.963-34.458 25.907L551.571 881.256a97.79 97.79 0 0 0-84.838-0.563l-246.576 134.091c-23.5 12.749-38.809 0.973-34.15-26.316L234.75 701.75a110.232 110.232 0 0 0-25.6-84.632L11.417 412.32c-18.84-19.456-12.85-38.348 13.363-42.137l275.248-40.038a102.399 102.399 0 0 0 68.607-51.404z" fill="#fb6894" p-id="1711"></path></svg>